<svg width="200" height="80" viewBox="0 0 200 80" fill="none" xmlns="http://www.w3.org/2000/svg">
  <!-- Lotus Icon -->
  <g transform="translate(10, 20)">
    <!-- Petals -->
    <path d="M20 15 C15 10, 5 10, 5 20 C5 25, 15 30, 20 25 Z" fill="#007D8C" opacity="0.8"/>
    <path d="M20 15 C25 10, 35 10, 35 20 C35 25, 25 30, 20 25 Z" fill="#007D8C" opacity="0.8"/>
    <path d="M20 25 C15 30, 5 30, 5 20 C5 15, 15 10, 20 15 Z" fill="#F28AB2" opacity="0.8"/>
    <path d="M20 25 C25 30, 35 30, 35 20 C35 15, 25 10, 20 15 Z" fill="#F28AB2" opacity="0.8"/>
    <!-- Center -->
    <circle cx="20" cy="20" r="5" fill="#007D8C"/>
  </g>
  
  <!-- Text -->
  <text x="60" y="30" font-family="Poppins, sans-serif" font-size="18" font-weight="bold" fill="#007D8C">
    BHARGAVI
  </text>
  <text x="60" y="50" font-family="Poppins, sans-serif" font-size="12" font-weight="500" fill="#666">
    HEALTH CARE
  </text>
  <line x1="60" y1="55" x2="180" y2="55" stroke="#F28AB2" stroke-width="2"/>
</svg>